<svg width="300" height="300" viewBox="0 0 300 300" fill="none" xmlns="http://www.w3.org/2000/svg">
<rect width="300" height="300" fill="#F3F3F3"/>
<path d="M137.617 156V147.516H139.617V156H137.617ZM138.632 146.312C138.007 146.312 137.476 145.828 137.476 145.219C137.476 144.625 138.007 144.141 138.632 144.141C139.273 144.141 139.789 144.625 139.789 145.219C139.789 145.828 139.273 146.312 138.632 146.312ZM141.203 156V147.516H143.109V148.953H143.219C143.562 147.984 144.422 147.406 145.547 147.406C146.703 147.406 147.516 147.984 147.844 148.953H147.937C148.312 148.016 149.25 147.406 150.484 147.406C152.031 147.406 153.125 148.406 153.125 150.297V156H151.141V150.609C151.141 149.547 150.5 149.078 149.687 149.078C148.703 149.078 148.141 149.75 148.141 150.703V156H146.203V150.531C146.203 149.656 145.609 149.078 144.766 149.078C143.906 149.078 143.203 149.781 143.203 150.844V156H141.203ZM158.414 159.359C156.164 159.359 154.743 158.359 154.602 156.766H156.586C156.727 157.5 157.43 157.859 158.446 157.859C159.633 157.859 160.414 157.344 160.414 156.094V154.469H160.321C160.008 155.094 159.336 155.875 157.868 155.875C155.914 155.875 154.368 154.453 154.368 151.688C154.368 148.891 155.914 147.406 157.883 147.406C159.383 147.406 160.008 148.297 160.321 148.906H160.414V147.516H162.383V156.141C162.383 158.312 160.711 159.359 158.414 159.359ZM158.414 154.312C159.696 154.312 160.43 153.344 160.43 151.719C160.43 150.109 159.711 149.031 158.414 149.031C157.086 149.031 156.399 150.172 156.399 151.719C156.399 153.281 157.102 154.312 158.414 154.312Z" fill="#888888"/>
</svg>
