<svg width="24" height="24" viewBox="0 0 24 24" fill="none" xmlns="http://www.w3.org/2000/svg">
<path fill-rule="evenodd" clip-rule="evenodd" d="M18 3H6C4.50746 3 3.20586 3.81746 2.51847 5.02908L11.9998 13.6485L21.4814 5.02886C20.794 3.81736 19.4924 3 18 3ZM2 16.7958V7.26066L7.34455 12.1193L2 16.7958ZM2.52943 18.9901C3.21963 20.1912 4.51536 21 6 21H18C19.4845 21 20.7801 20.1913 21.4704 18.9905L15.1654 13.4736L11.9998 16.3514L8.83413 13.4735L2.52943 18.9901ZM16.655 12.1195L22 16.7964V7.26034L16.655 12.1195ZM6 1C2.68629 1 0 3.68629 0 7V17C0 20.3137 2.68629 23 6 23H18C21.3137 23 24 20.3137 24 17V7C24 3.68629 21.3137 1 18 1H6Z" fill="#222222"/>
</svg>
