<svg width="33" height="32" viewBox="0 0 33 32" fill="none" xmlns="http://www.w3.org/2000/svg">
<g clip-path="url(#clip0_2140_11592)" filter="url(#filter0_d_2140_11592)">
<path fill-rule="evenodd" clip-rule="evenodd" d="M22.8066 3.28418L10.8066 3.28418C9.3141 3.28418 8.0125 4.10164 7.32511 5.31326L16.8065 13.9327L26.288 5.31304C25.6006 4.10154 24.2991 3.28418 22.8066 3.28418ZM6.80664 17.08L6.80664 7.54484L12.1512 12.4035L6.80664 17.08ZM7.33607 19.2743C8.02627 20.4753 9.322 21.2842 10.8066 21.2842L22.8066 21.2842C24.2911 21.2842 25.5868 20.4755 26.277 19.2746L19.972 13.7578L16.8065 16.6356L13.6408 13.7577L7.33607 19.2743ZM21.4616 12.4036L26.8066 17.0805L26.8066 7.54452L21.4616 12.4036ZM10.8066 1.28418C7.49293 1.28418 4.80664 3.97047 4.80664 7.28418L4.80664 17.2842C4.80664 20.5979 7.49293 23.2842 10.8066 23.2842L22.8066 23.2842C26.1203 23.2842 28.8066 20.5979 28.8066 17.2842L28.8066 7.28418C28.8066 3.97047 26.1203 1.28418 22.8066 1.28418L10.8066 1.28418Z" fill="white"/>
</g>
<defs>
<filter id="filter0_d_2140_11592" x="0.806641" y="0.28418" width="32" height="32" filterUnits="userSpaceOnUse" color-interpolation-filters="sRGB">
<feFlood flood-opacity="0" result="BackgroundImageFix"/>
<feColorMatrix in="SourceAlpha" type="matrix" values="0 0 0 0 0 0 0 0 0 0 0 0 0 0 0 0 0 0 127 0" result="hardAlpha"/>
<feOffset dy="4"/>
<feGaussianBlur stdDeviation="2"/>
<feComposite in2="hardAlpha" operator="out"/>
<feColorMatrix type="matrix" values="0 0 0 0 0 0 0 0 0 0 0 0 0 0 0 0 0 0 0.25 0"/>
<feBlend mode="normal" in2="BackgroundImageFix" result="effect1_dropShadow_2140_11592"/>
<feBlend mode="normal" in="SourceGraphic" in2="effect1_dropShadow_2140_11592" result="shape"/>
</filter>
<clipPath id="clip0_2140_11592">
<rect width="24" height="24" fill="white" transform="translate(4.80664 0.28418)"/>
</clipPath>
</defs>
</svg>
