<svg width="24" height="24" viewBox="0 0 24 24" fill="none" xmlns="http://www.w3.org/2000/svg">
<g clip-path="url(#clip0_592_1575)">
<path d="M3.33612 14.7673L3.44911 13.7737H3.44911L3.33612 14.7673ZM5.35191 18.2352L6.27121 18.6288L6.27121 18.6288L5.35191 18.2352ZM2.33053 14.6529L2.21754 15.6465H2.21754L2.33053 14.6529ZM2.33053 9.3471L2.21755 8.3535H2.21754L2.33053 9.3471ZM3.33614 9.23275L3.22316 8.23915L3.33614 9.23275ZM5.35193 5.76484L6.27122 5.37127L6.27122 5.37127L5.35193 5.76484ZM4.90169 4.71317L3.98239 5.10674V5.10674L4.90169 4.71317ZM5.51759 2.8314L5.00889 1.97046V1.97046L5.51759 2.8314ZM7.43635 1.69769L6.92765 0.836746V0.836746L7.43635 1.69769ZM9.41736 2.11359L8.60538 2.69727V2.69727L9.41736 2.11359ZM9.97001 2.8824L10.782 2.29871L10.782 2.29871L9.97001 2.8824ZM14.0299 2.8824L14.8419 3.46608V3.46608L14.0299 2.8824ZM14.5826 2.11349L13.7707 1.52981V1.52981L14.5826 2.11349ZM16.5637 1.69759L16.055 2.55854V2.55854L16.5637 1.69759ZM18.4824 2.83131L18.9911 1.97036L18.4824 2.83131ZM19.0983 4.71307L18.179 4.31951V4.31951L19.0983 4.71307ZM18.648 5.76483L19.5673 6.1584V6.1584L18.648 5.76483ZM20.6638 9.23274L20.5508 10.2263L20.6638 9.23274ZM21.6695 9.3471L21.7825 8.3535L21.6695 9.3471ZM21.6695 14.6529L21.5565 13.6593H21.5565L21.6695 14.6529ZM20.6638 14.7673L20.7768 15.7609H20.7768L20.6638 14.7673ZM18.6481 18.2352L19.5673 17.8416L18.6481 18.2352ZM19.0983 19.287L20.0176 18.8934V18.8934L19.0983 19.287ZM18.4824 21.1687L17.9737 20.3078H17.9737L18.4824 21.1687ZM16.5637 22.3024L17.0724 23.1634L16.5637 22.3024ZM14.5827 21.8866L15.3946 21.3029L15.3946 21.3029L14.5827 21.8866ZM14.0299 21.1176L13.2179 21.7013L14.0299 21.1176ZM9.97001 21.1176L9.15803 20.5339L9.15803 20.5339L9.97001 21.1176ZM9.41735 21.8865L10.2293 22.4701L10.2293 22.4701L9.41735 21.8865ZM7.43633 22.3023L7.94503 21.4414L7.94502 21.4414L7.43633 22.3023ZM5.51757 21.1686L5.00888 22.0296H5.00888L5.51757 21.1686ZM4.90167 19.2869L3.98238 18.8933L3.98238 18.8933L4.90167 19.2869ZM3.22314 15.7609C4.2214 15.8744 4.82802 16.918 4.43261 17.8416L6.27121 18.6288C7.19383 16.4737 5.77836 14.0386 3.44911 13.7737L3.22314 15.7609ZM2.21754 15.6465L3.22314 15.7609L3.44911 13.7737L2.44351 13.6593L2.21754 15.6465ZM0 13.1626C0 14.434 0.954264 15.5029 2.21754 15.6465L2.44351 13.6593C2.19085 13.6306 2 13.4168 2 13.1626H0ZM0 10.8375V13.1626H2V10.8375H0ZM2.21754 8.3535C0.954265 8.49715 0 9.56607 0 10.8375H2C2 10.5832 2.19085 10.3694 2.44351 10.3407L2.21754 8.3535ZM3.22316 8.23915L2.21755 8.3535L2.44351 10.3407L3.44912 10.2263L3.22316 8.23915ZM4.43263 6.1584C4.82804 7.08201 4.22141 8.12564 3.22316 8.23915L3.44912 10.2263C5.77838 9.96148 7.19385 7.52634 6.27122 5.37127L4.43263 6.1584ZM3.98239 5.10674L4.43263 6.1584L6.27122 5.37127L5.82099 4.31961L3.98239 5.10674ZM5.00889 1.97046C3.92735 2.6095 3.48798 3.95189 3.98239 5.10674L5.82099 4.31961C5.7221 4.08864 5.80998 3.82016 6.02629 3.69235L5.00889 1.97046ZM6.92765 0.836746L5.00889 1.97046L6.02629 3.69235L7.94504 2.55864L6.92765 0.836746ZM10.2293 1.52991C9.47404 0.479173 8.04175 0.178475 6.92765 0.836746L7.94504 2.55864C8.16786 2.42699 8.45432 2.48712 8.60538 2.69727L10.2293 1.52991ZM10.782 2.29871L10.2293 1.52991L8.60538 2.69727L9.15803 3.46608L10.782 2.29871ZM13.2179 2.29871C12.6194 3.13135 11.3805 3.13135 10.782 2.29871L9.15803 3.46608C10.5546 5.40889 13.4453 5.40889 14.8419 3.46608L13.2179 2.29871ZM13.7707 1.52981L13.2179 2.29871L14.8419 3.46608L15.3946 2.69717L13.7707 1.52981ZM17.0723 0.836648C15.9583 0.178377 14.526 0.479075 13.7707 1.52981L15.3946 2.69717C15.5457 2.48703 15.8321 2.42689 16.055 2.55854L17.0723 0.836648ZM18.9911 1.97036L17.0723 0.836648L16.055 2.55854L17.9737 3.69225L18.9911 1.97036ZM20.0176 5.10664C20.512 3.95179 20.0727 2.6094 18.9911 1.97036L17.9737 3.69225C18.19 3.82006 18.2779 4.08854 18.179 4.31951L20.0176 5.10664ZM19.5673 6.1584L20.0176 5.10664L18.179 4.31951L17.7287 5.37127L19.5673 6.1584ZM20.7768 8.23915C19.7785 8.12563 19.1719 7.082 19.5673 6.1584L17.7287 5.37126C16.8061 7.52634 18.2216 9.96148 20.5508 10.2263L20.7768 8.23915ZM21.7825 8.3535L20.7768 8.23915L20.5508 10.2263L21.5565 10.3407L21.7825 8.3535ZM24 10.8375C24 9.56607 23.0457 8.49715 21.7825 8.3535L21.5565 10.3407C21.8091 10.3694 22 10.5832 22 10.8375H24ZM24 13.1625V10.8375H22V13.1625H24ZM21.7825 15.6465C23.0457 15.5029 24 14.434 24 13.1625H22C22 13.4168 21.8091 13.6306 21.5565 13.6593L21.7825 15.6465ZM20.7768 15.7609L21.7825 15.6465L21.5565 13.6593L20.5508 13.7737L20.7768 15.7609ZM19.5673 17.8416C19.1719 16.918 19.7786 15.8744 20.7768 15.7609L20.5509 13.7737C18.2216 14.0386 16.8061 16.4737 17.7288 18.6288L19.5673 17.8416ZM20.0176 18.8934L19.5673 17.8416L17.7288 18.6288L18.179 19.6805L20.0176 18.8934ZM18.9911 22.0297C20.0727 21.3906 20.512 20.0483 20.0176 18.8934L18.179 19.6805C18.2779 19.9115 18.19 20.18 17.9737 20.3078L18.9911 22.0297ZM17.0724 23.1634L18.9911 22.0297L17.9737 20.3078L16.055 21.4415L17.0724 23.1634ZM13.7707 22.4702C14.526 23.521 15.9583 23.8217 17.0724 23.1634L16.055 21.4415C15.8322 21.5732 15.5457 21.513 15.3946 21.3029L13.7707 22.4702ZM13.2179 21.7013L13.7707 22.4702L15.3946 21.3029L14.8419 20.5339L13.2179 21.7013ZM10.782 21.7013C11.3805 20.8687 12.6194 20.8687 13.2179 21.7013L14.8419 20.5339C13.4453 18.5911 10.5546 18.5911 9.15803 20.5339L10.782 21.7013ZM10.2293 22.4701L10.782 21.7013L9.15803 20.5339L8.60536 21.3028L10.2293 22.4701ZM6.92763 23.1633C8.04173 23.8216 9.47402 23.5209 10.2293 22.4701L8.60536 21.3028C8.4543 21.5129 8.16784 21.5731 7.94503 21.4414L6.92763 23.1633ZM5.00888 22.0296L6.92763 23.1633L7.94502 21.4414L6.02627 20.3077L5.00888 22.0296ZM3.98238 18.8933C3.48796 20.0482 3.92733 21.3905 5.00888 22.0296L6.02627 20.3077C5.80996 20.1799 5.72209 19.9114 5.82097 19.6804L3.98238 18.8933ZM4.43261 17.8416L3.98238 18.8933L5.82097 19.6804L6.27121 18.6288L4.43261 17.8416ZM14 12C14 13.1046 13.1046 14 12 14V16C14.2091 16 16 14.2091 16 12H14ZM12 10C13.1046 10 14 10.8954 14 12H16C16 9.79086 14.2091 8 12 8V10ZM10 12C10 10.8954 10.8954 10 12 10V8C9.79086 8 8 9.79086 8 12H10ZM12 14C10.8954 14 10 13.1046 10 12H8C8 14.2091 9.79086 16 12 16V14Z" fill="#222222"/>
</g>
<defs>
<clipPath id="clip0_592_1575">
<rect width="24" height="24" fill="white"/>
</clipPath>
</defs>
</svg>
