<svg width="24" height="24" viewBox="0 0 24 24" fill="none" xmlns="http://www.w3.org/2000/svg">
<path d="M12 19C11.1716 19 10.5 18.3284 10.5 17.5C10.5 16.6716 11.1716 16 12 16C12.8284 16 13.5 16.6716 13.5 17.5C13.5 18.3284 12.8284 19 12 19Z" fill="#222222"/>
<path d="M12 13.5C11.1716 13.5 10.5 12.8284 10.5 12C10.5 11.1716 11.1716 10.5 12 10.5C12.8284 10.5 13.5 11.1716 13.5 12C13.5 12.8284 12.8284 13.5 12 13.5Z" fill="#222222"/>
<path d="M12 8C11.1716 8 10.5 7.32843 10.5 6.5C10.5 5.67157 11.1716 5 12 5C12.8284 5 13.5 5.67157 13.5 6.5C13.5 7.32843 12.8284 8 12 8Z" fill="#222222"/>
</svg>
