<svg width="24" height="24" viewBox="0 0 24 24" fill="none" xmlns="http://www.w3.org/2000/svg">
<path d="M1 10.0369C1 8.75715 1.61234 7.55466 2.64731 6.80195L9.64731 1.71104C11.0499 0.690971 12.9501 0.690971 14.3527 1.71104L21.3527 6.80195C22.3877 7.55466 23 8.75715 23 10.0369V18C23 20.2091 21.2091 22 19 22H5C2.79086 22 1 20.2091 1 18V10.0369Z" fill="#222222"/>
<path fill-rule="evenodd" clip-rule="evenodd" d="M8 16C8 15.5858 8.35817 15.25 8.8 15.25H15.2C15.6418 15.25 16 15.5858 16 16C16 16.4142 15.6418 16.75 15.2 16.75H8.8C8.35817 16.75 8 16.4142 8 16Z" fill="white"/>
</svg>
