<svg width="24" height="24" viewBox="0 0 24 24" fill="none" xmlns="http://www.w3.org/2000/svg">
<path fill-rule="evenodd" clip-rule="evenodd" d="M5.29512 4.12841C4.79027 2.95392 4.94277 1.76427 5.68153 0.935395C6.40054 0.128687 7.53239 -0.172484 8.6505 0.0965644C9.37383 0.270616 10.2416 0.688887 11.0417 1.59595C11.3841 1.98417 11.7071 2.45375 12 3.01935C12.2929 2.45375 12.6159 1.98417 12.9583 1.59595C13.7584 0.688887 14.6262 0.270616 15.3495 0.0965644C16.4676 -0.172484 17.5995 0.128687 18.3185 0.935395C19.0572 1.76427 19.2097 2.95392 18.7049 4.12841C18.5432 4.50444 18.3219 4.83025 18.0597 5.11253C20.3122 5.59861 22 7.60219 22 10V17C22 19.7614 19.7614 22 17 22H12H7C4.23858 22 2 19.7614 2 17V10C2 7.6022 3.68785 5.59861 5.94026 5.11253C5.67807 4.83025 5.45676 4.50444 5.29512 4.12841ZM13 20H17C18.6569 20 20 18.6569 20 17V10C20 8.34315 18.6569 7 17 7H12.9981C12.9994 7.02205 13 7.04428 13 7.06667L13 20ZM11.0019 7C11.0006 7.02205 11 7.04428 11 7.06667L11 20H7C5.34315 20 4 18.6569 4 17V10C4 8.34315 5.34315 7 7 7H11.0019ZM8.1826 2.04106C7.68539 1.92142 7.34069 2.07974 7.17457 2.26612C7.02821 2.43033 6.88702 2.76737 7.13256 3.33859C7.33951 3.82006 7.88886 4.25677 8.85323 4.57042C9.40074 4.74849 10.0191 4.86506 10.6505 4.93124C10.3091 3.97443 9.91305 3.33983 9.54181 2.91897C9.03205 2.34106 8.53415 2.12566 8.1826 2.04106ZM15.8174 2.04106C16.3146 1.92142 16.6593 2.07974 16.8254 2.26612C16.9718 2.43033 17.113 2.76737 16.8674 3.33859C16.6605 3.82006 16.1111 4.25677 15.1468 4.57042C14.5993 4.74849 13.9809 4.86506 13.3495 4.93124C13.6909 3.97443 14.0869 3.33983 14.4582 2.91897C14.968 2.34106 15.4658 2.12566 15.8174 2.04106Z" fill="#222222"/>
</svg>
