<svg width="24" height="24" viewBox="0 0 24 24" fill="none" xmlns="http://www.w3.org/2000/svg">
<path d="M2 10C2 9.44772 2.44772 9 3 9H21C21.5523 9 22 9.44772 22 10V18C22 20.2091 20.2091 22 18 22H6C3.79086 22 2 20.2091 2 18V10Z" fill="#222222"/>
<path d="M2 3.5C2 3.22386 2.22386 3 2.5 3H21.5C21.7761 3 22 3.22386 22 3.5V6C22 6.27614 21.7761 6.5 21.5 6.5H2.5C2.22386 6.5 2 6.27614 2 6V3.5Z" fill="#222222" stroke="#222222" stroke-width="2"/>
<path fill-rule="evenodd" clip-rule="evenodd" d="M8 12.25C8 11.8358 8.35817 11.5 8.8 11.5H15.2C15.6418 11.5 16 11.8358 16 12.25C16 12.6642 15.6418 13 15.2 13H8.8C8.35817 13 8 12.6642 8 12.25Z" fill="white"/>
</svg>
