<svg width="24" height="24" viewBox="0 0 24 24" fill="none" xmlns="http://www.w3.org/2000/svg">
<g clip-path="url(#clip0_1072_5219)">
<path fill-rule="evenodd" clip-rule="evenodd" d="M8 1C8 0.447715 8.44771 0 9 0C9.55228 0 10 0.447715 10 1V2H14V1C14 0.447715 14.4477 0 15 0C15.5523 0 16 0.447715 16 1V2H18C21.3137 2 24 4.68629 24 8V18C24 21.3137 21.3137 24 18 24H6C2.68629 24 0 21.3137 0 18V9V8C0 4.68629 2.68629 2 6 2H8V1ZM14 4V5C14 5.55228 14.4477 6 15 6C15.5523 6 16 5.55228 16 5V4H18C20.2091 4 22 5.79086 22 8H2C2 5.79086 3.79086 4 6 4H8V5C8 5.55228 8.44771 6 9 6C9.55228 6 10 5.55228 10 5V4H14ZM2 10L22 10V18C22 20.2091 20.2091 22 18 22H6C3.79086 22 2 20.2091 2 18V10Z" fill="#222222"/>
</g>
<defs>
<clipPath id="clip0_1072_5219">
<rect width="24" height="24" fill="white"/>
</clipPath>
</defs>
</svg>
