<svg width="24" height="24" viewBox="0 0 24 24" fill="none" xmlns="http://www.w3.org/2000/svg">
<g clip-path="url(#clip0_487_1986)">
<path fill-rule="evenodd" clip-rule="evenodd" d="M11.9998 2C8.68611 2 5.99982 4.68629 5.99982 8V11.4281C5.99982 11.6462 5.95222 11.8618 5.86033 12.0597L4.22643 15.5789C3.9187 16.2417 4.40267 17 5.13344 17H18.8662C19.597 17 20.0809 16.2417 19.7732 15.5789L18.1393 12.0597C18.0474 11.8618 17.9998 11.6462 17.9998 11.428V8C17.9998 4.68629 15.3135 2 11.9998 2ZM3.99982 8C3.99982 3.58172 7.58154 0 11.9998 0C16.4181 0 19.9998 3.58172 19.9998 8V11.3176L21.5872 14.7367C22.5104 16.7251 21.0585 19 18.8662 19H5.13344C2.94113 19 1.48921 16.7251 2.41242 14.7367L3.99982 11.3176V8Z" fill="#222222"/>
<path fill-rule="evenodd" clip-rule="evenodd" d="M8.33828 20.896C8.75235 20.5306 9.38429 20.57 9.74975 20.984C10.3009 21.6085 11.1041 21.9999 12 21.9999C12.8959 21.9999 13.6991 21.6085 14.2503 20.984C14.6157 20.57 15.2477 20.5306 15.6617 20.896C16.0758 21.2615 16.1152 21.8934 15.7498 22.3075C14.835 23.3439 13.4935 23.9999 12 23.9999C10.5065 23.9999 9.16499 23.3439 8.25027 22.3075C7.88481 21.8934 7.92421 21.2615 8.33828 20.896Z" fill="#222222"/>
</g>
<defs>
<clipPath id="clip0_487_1986">
<rect width="24" height="24" fill="white"/>
</clipPath>
</defs>
</svg>
