<svg width="24" height="24" viewBox="0 0 24 24" fill="none" xmlns="http://www.w3.org/2000/svg">
<path fill-rule="evenodd" clip-rule="evenodd" d="M1 5C1 2.79086 2.79086 1 5 1H19C21.2091 1 23 2.79086 23 5V12C23 14.2091 21.2091 16 19 16H5C2.79086 16 1 14.2091 1 12V5ZM5 3C3.89543 3 3 3.89543 3 5V12C3 13.1046 3.89543 14 5 14H19C20.1046 14 21 13.1046 21 12V5C21 3.89543 20.1046 3 19 3H5ZM8.29289 19.7071C7.90237 19.3166 7.90237 18.6834 8.29289 18.2929C8.68342 17.9024 9.31658 17.9024 9.70711 18.2929L12 20.5858L14.2929 18.2929C14.6834 17.9024 15.3166 17.9024 15.7071 18.2929C16.0976 18.6834 16.0976 19.3166 15.7071 19.7071L12.7071 22.7071C12.3166 23.0976 11.6834 23.0976 11.2929 22.7071L8.29289 19.7071ZM10 9.5C9.44771 9.5 9 9.94771 9 10.5C9 11.0523 9.44771 11.5 10 11.5H14C14.5523 11.5 15 11.0523 15 10.5C15 9.94771 14.5523 9.5 14 9.5H10ZM7 10.5C7 11.0523 6.55228 11.5 6 11.5C5.44772 11.5 5 11.0523 5 10.5C5 9.94771 5.44772 9.5 6 9.5C6.55228 9.5 7 9.94771 7 10.5ZM6 7.5C6.55228 7.5 7 7.05228 7 6.5C7 5.94772 6.55228 5.5 6 5.5C5.44772 5.5 5 5.94772 5 6.5C5 7.05228 5.44772 7.5 6 7.5ZM11 6.5C11 7.05228 10.5523 7.5 10 7.5C9.44771 7.5 9 7.05228 9 6.5C9 5.94772 9.44771 5.5 10 5.5C10.5523 5.5 11 5.94772 11 6.5ZM18 11.5C18.5523 11.5 19 11.0523 19 10.5C19 9.94771 18.5523 9.5 18 9.5C17.4477 9.5 17 9.94771 17 10.5C17 11.0523 17.4477 11.5 18 11.5ZM19 6.5C19 7.05228 18.5523 7.5 18 7.5C17.4477 7.5 17 7.05228 17 6.5C17 5.94772 17.4477 5.5 18 5.5C18.5523 5.5 19 5.94772 19 6.5ZM14 7.5C14.5523 7.5 15 7.05228 15 6.5C15 5.94772 14.5523 5.5 14 5.5C13.4477 5.5 13 5.94772 13 6.5C13 7.05228 13.4477 7.5 14 7.5Z" fill="#222222"/>
</svg>
