<svg width="24" height="24" viewBox="0 0 24 24" fill="none" xmlns="http://www.w3.org/2000/svg">
<rect x="4" y="4" width="16" height="16" rx="8" fill="#F3F3F3"/>
<path fill-rule="evenodd" clip-rule="evenodd" d="M8.6716 11.2499C8.25739 11.2499 7.92162 11.5857 7.92165 12C7.92168 12.4142 8.25749 12.7499 8.6717 12.7499L13.518 12.7496L11.9696 14.298C11.6767 14.5909 11.6767 15.0657 11.9696 15.3586C12.2625 15.6515 12.7374 15.6515 13.0303 15.3586L15.8587 12.5302C16.1516 12.2373 16.1516 11.7624 15.8587 11.4695L15.8581 11.4689L13.0303 8.64112C12.7374 8.34823 12.2625 8.34823 11.9696 8.64112C11.6767 8.93402 11.6767 9.40889 11.9696 9.70178L13.5175 11.2496L8.6716 11.2499Z" fill="#222222"/>
</svg>
