<svg width="24" height="24" viewBox="0 0 24 24" fill="none" xmlns="http://www.w3.org/2000/svg">
<path fill-rule="evenodd" clip-rule="evenodd" d="M16.7075 3.29289C16.317 2.90237 15.6838 2.90237 15.2933 3.29288L4.29291 14.2929C4.10536 14.4804 4 14.7348 4 15V19C4 19.5523 4.44772 20 5 20H9C9.26521 20 9.51956 19.8946 9.70709 19.7071L20.7075 8.70712C20.895 8.51958 21.0004 8.26523 21.0004 8.00001C21.0004 7.73479 20.895 7.48043 20.7075 7.29289L16.7075 3.29289ZM6 18V15.4142L13.0001 8.41434L15.5859 11.0001L8.5858 18H6ZM17.0001 9.58593L18.5861 7.99999L16.0004 5.4142L14.4144 7.00015L17.0001 9.58593Z" fill="#222222"/>
</svg>
