<svg width="24" height="24" viewBox="0 0 24 24" fill="none" xmlns="http://www.w3.org/2000/svg">
<path fill-rule="evenodd" clip-rule="evenodd" d="M1 4C1 2.89543 1.89543 2 3 2H21C22.1046 2 23 2.89543 23 4V7C23 7.74028 22.5978 8.38663 22 8.73244V17C22 19.7614 19.7614 22 17 22H7C4.23858 22 2 19.7614 2 17V8.73244C1.4022 8.38663 1 7.74028 1 7V4ZM4 9H20V17C20 18.6569 18.6569 20 17 20H7C5.34315 20 4 18.6569 4 17V9ZM21 4V7H3V4H21ZM9 11C8.44772 11 8 11.4477 8 12C8 12.5523 8.44772 13 9 13H15C15.5523 13 16 12.5523 16 12C16 11.4477 15.5523 11 15 11H9Z" fill="#222222"/>
</svg>
