<svg width="24" height="24" viewBox="0 0 24 24" fill="none" xmlns="http://www.w3.org/2000/svg">
<g clip-path="url(#clip0_1514_10888)">
<path fill-rule="evenodd" clip-rule="evenodd" d="M18 3H6C3.79086 3 2 4.79086 2 7V17C2 19.2091 3.79086 21 6 21H18C20.2091 21 22 19.2091 22 17V7C22 4.79086 20.2091 3 18 3ZM6 1C2.68629 1 0 3.68629 0 7V17C0 20.3137 2.68629 23 6 23H18C21.3137 23 24 20.3137 24 17V7C24 3.68629 21.3137 1 18 1H6Z" fill="#222222"/>
<path d="M23.5 15.5L18 10L13 15L10 12L2 20" stroke="#222222" stroke-width="2"/>
<circle cx="6.5" cy="7.5" r="1.5" fill="#222222"/>
</g>
<defs>
<clipPath id="clip0_1514_10888">
<rect width="24" height="24" fill="white"/>
</clipPath>
</defs>
</svg>
