<svg width="24" height="24" viewBox="0 0 24 24" fill="none" xmlns="http://www.w3.org/2000/svg">
<path fill-rule="evenodd" clip-rule="evenodd" d="M7.84794 3.86968C7.36011 3.94473 7 4.36448 7 4.85805L7 6.00013L7 9.00013L7 17.3346C6.55874 17.1219 6.04643 17.0001 5.5 17.0001C3.84315 17.0001 2.5 18.1194 2.5 19.5001C2.5 20.8808 3.84315 22.0001 5.5 22.0001C7.15685 22.0001 8.5 20.8808 8.5 19.5001L8.5 8.76936L18.5 7.2309L18.5 15.3346C18.0587 15.1219 17.5464 15.0001 17 15.0001C15.3431 15.0001 14 16.1194 14 17.5001C14 18.8808 15.3431 20.0001 17 20.0001C18.6569 20.0001 20 18.8808 20 17.5001L20 7.00013L20 4.00013L20 3.16574C20 2.55286 19.4537 2.08418 18.8479 2.17737L7.84794 3.86968Z" fill="white"/>
</svg>
