<svg width="160" height="60" viewBox="0 0 160 60" fill="none" xmlns="http://www.w3.org/2000/svg">
<path fill-rule="evenodd" clip-rule="evenodd" d="M107.473 0V19.165C108.448 17.9383 109.544 16.7776 110.764 15.7728C114.914 12.3534 119.827 12.4925 123.103 15.2038C126.275 17.8295 127.433 22.587 124.754 26.7717C122.651 30.0562 120.22 32.3758 118.099 33.9747C119.11 35.4058 120.289 36.389 121.62 36.7516C123.368 37.2281 126.654 36.9494 132.127 32.3487C131.957 31.4821 131.868 30.5866 131.868 29.6703V14.5054H138.462V29.6703C138.462 33.6758 141.709 36.923 145.714 36.923C149.699 36.923 152.933 33.7103 152.967 29.7341V29.0108H152.967V14.5054H159.561V29.6703L159.56 29.7584V42.7991C159.56 51.4668 151.973 58.1791 143.37 57.1226L142.785 57.0507C138.087 56.4737 134.042 53.4602 132.144 49.1234L138.185 46.4807C139.149 48.683 141.203 50.2134 143.589 50.5064L144.174 50.5783C148.846 51.1521 152.967 47.5066 152.967 42.7991V41.4674C150.858 42.7668 148.374 43.5164 145.714 43.5164C141.413 43.5164 137.569 41.5546 135.029 38.4767C129.369 42.8544 124.331 44.3244 119.886 43.1129C114.993 41.7792 112.224 37.544 110.733 34.2997L109.477 31.5684L112.081 30.0667C113.937 28.9964 116.833 26.9158 119.201 23.2163C119.995 21.9762 119.634 20.8916 118.899 20.2833C118.516 19.9664 118.009 19.7672 117.413 19.781C116.832 19.7944 115.98 20.0183 114.956 20.8618C112.995 22.4771 111.286 24.9068 109.934 27.4636C108.718 29.7634 107.892 31.9722 107.473 33.3829V43.5165H100.879V0H107.473ZM5.61354 24.6479C4.53084 21.9475 3.23846 19.1287 1.66377 15.9793L7.5611 13.0306C8.44875 14.806 9.25504 16.4906 9.99056 18.1172C12.8065 15.1797 16.5465 13.1863 21.4259 13.1863C28.736 13.1863 36.923 18.5453 36.923 28.3511C36.923 33.1233 34.9146 37.0752 31.5936 39.6213C28.3268 42.1259 24.0333 43.0925 19.6643 42.4967L20.5552 35.9638C23.439 36.357 25.9038 35.6753 27.582 34.3887C29.2061 33.1436 30.3296 31.1614 30.3296 28.3511C30.3296 22.9921 25.9559 19.7797 21.4259 19.7797C18.2919 19.7797 16.0235 21.0974 14.1351 23.3701C13.6839 23.913 13.2583 24.5071 12.8552 25.146C14.4051 29.4672 15.5149 33.7149 16.4253 38.6298C17.0884 42.2101 17.5705 46.9937 16.9615 51.0307C16.659 53.0359 16.0406 55.1902 14.7494 56.9139C13.3418 58.7929 11.2384 59.9995 8.56815 59.9995C5.87135 59.9995 3.67447 58.7486 2.22571 56.6743C0.891344 54.7638 0.285505 52.3118 0.0825348 49.7978C-0.326203 44.735 0.797949 38.0816 3.12727 30.9535C3.80806 28.8702 4.61334 26.7115 5.61354 24.6479ZM8.85449 34.7228C7.06002 40.6939 6.37151 45.7611 6.65456 49.2672C6.8109 51.2037 7.2387 52.3369 7.63123 52.8989C7.90936 53.2971 8.13263 53.4061 8.56815 53.4061C9.03017 53.4061 9.22877 53.2861 9.47242 52.9608C9.83244 52.4803 10.2147 51.5526 10.4418 50.0471C10.8921 47.0628 10.5496 43.1101 9.94213 39.8307C9.61135 38.0449 9.25395 36.3573 8.85449 34.7228ZM44.5291 23.4297C45.9454 22.0134 48.6421 19.7799 52.7475 19.7799C54.7595 19.7799 56.8831 20.4764 58.4417 21.6889C59.9197 22.8387 60.8039 24.3619 60.8328 26.2312C58.0367 24.361 55.2336 24.0656 52.5488 24.0656C46.1621 24.0656 39.9817 28.1869 40.5632 34.5839C40.8229 37.4404 42.3157 39.7861 44.5816 41.3343C46.7775 42.8347 49.5716 43.5162 52.5488 43.5162C57.0985 43.5162 60.5161 42.0832 62.911 39.7194C63.3368 40.5772 63.7806 41.5195 64.2437 42.5547L70.2623 39.8622C69.033 37.1143 67.8534 34.7964 66.6748 32.856C67.2638 30.586 67.4269 28.2923 67.4269 26.3257C67.4269 22.058 65.3274 18.692 62.4902 16.4848C59.7089 14.3211 56.1412 13.1865 52.7475 13.1865C46.0415 13.1865 41.7473 16.887 39.8669 18.7674L44.5291 23.4297ZM57.7295 32.1315C58.212 32.5291 58.7263 33.0483 59.2795 33.732C59.2551 33.7732 59.2304 33.8141 59.2053 33.8546C58.1864 35.5 56.4023 36.9228 52.5488 36.9228C50.5132 36.9228 49.1209 36.4504 48.3012 35.8903C47.5515 35.378 47.1995 34.7568 47.1295 33.9869C47.0517 33.1311 48.1241 30.659 52.5488 30.659C54.9204 30.659 56.2853 30.9411 57.7295 32.1315ZM77.8022 28.3513C77.8022 23.6908 81.6932 19.7799 86.6588 19.7799C89.018 19.7799 91.1452 20.668 92.7255 22.107L97.1647 17.2319C94.4033 14.7174 90.7043 13.1865 86.6588 13.1865C78.2002 13.1865 71.2088 19.9027 71.2088 28.3513C71.2088 36.8 78.2002 43.5162 86.6588 43.5162C90.7043 43.5162 94.4033 41.9852 97.1647 39.4707L92.7255 34.5956C91.1452 36.0346 89.018 36.9228 86.6588 36.9228C81.6932 36.9228 77.8022 33.0118 77.8022 28.3513Z" fill="#635DF0"/>
</svg>
