<svg width="24" height="24" viewBox="0 0 24 24" fill="none" xmlns="http://www.w3.org/2000/svg">
<path fill-rule="evenodd" clip-rule="evenodd" d="M10.3359 3.31122C11.3436 2.63942 12.6564 2.63942 13.6641 3.31122L19.6641 7.31122C20.4987 7.86762 21 8.80431 21 9.80737V17C21 18.6568 19.6569 20 18 20H6C4.34315 20 3 18.6568 3 17V9.80737C3 8.80431 3.5013 7.86762 4.3359 7.31122L10.3359 3.31122ZM14.7735 1.64712C13.094 0.527456 10.906 0.527458 9.2265 1.64712L3.2265 5.64712C1.83551 6.57445 1 8.13561 1 9.80737V17C1 19.7614 3.23858 22 6 22H18C20.7614 22 23 19.7614 23 17V9.80737C23 8.13561 22.1645 6.57445 20.7735 5.64712L14.7735 1.64712ZM9 15C8.44772 15 8 15.4477 8 16C8 16.5523 8.44772 17 9 17H15C15.5523 17 16 16.5523 16 16C16 15.4477 15.5523 15 15 15H9Z" fill="#222222"/>
</svg>
