<svg width="24" height="24" viewBox="0 0 24 24" fill="none" xmlns="http://www.w3.org/2000/svg">
<path fill-rule="evenodd" clip-rule="evenodd" d="M5.68137 0.935395C4.9426 1.76427 4.7901 2.95392 5.29495 4.12841C5.66451 4.98816 6.34602 5.58536 7.11481 6H6C3.79086 6 2 7.79086 2 10V18C2 20.2091 3.79086 22 6 22H11.25L11.25 6.99999H11.9995H12.0002H12.75L12.75 22H18C20.2091 22 22 20.2091 22 18V10C22 7.79086 20.2091 6 18 6H16.8849C17.6536 5.58536 18.3352 4.98816 18.7047 4.12841C19.2096 2.95392 19.0571 1.76427 18.3183 0.935395C17.5993 0.128687 16.4674 -0.172484 15.3493 0.0965644C14.626 0.270616 13.7583 0.688887 12.9582 1.59595C12.6157 1.98417 12.2927 2.45375 11.9998 3.01935C11.7069 2.45375 11.384 1.98417 11.0415 1.59595C10.2414 0.688887 9.37366 0.270616 8.65034 0.0965644C7.53223 -0.172484 6.40037 0.128687 5.68137 0.935395ZM7.17441 2.26612C7.34053 2.07974 7.68522 1.92142 8.18244 2.04106C8.53399 2.12566 9.03188 2.34106 9.54165 2.91897C9.91289 3.33983 10.3089 3.97443 10.6504 4.93124C10.019 4.86506 9.40058 4.74849 8.85307 4.57042C7.8887 4.25677 7.33935 3.82006 7.13239 3.33859C6.88686 2.76737 7.02805 2.43033 7.17441 2.26612ZM16.8253 2.26612C16.6591 2.07974 16.3144 1.92142 15.8172 2.04106C15.4657 2.12566 14.9678 2.34106 14.458 2.91897C14.0868 3.33983 13.6907 3.97443 13.3493 4.93124C13.9807 4.86506 14.5991 4.74849 15.1466 4.57042C16.111 4.25677 16.6603 3.82006 16.8673 3.33859C17.1128 2.76737 16.9716 2.43033 16.8253 2.26612Z" fill="#222222"/>
</svg>
