<svg width="24" height="24" viewBox="0 0 24 24" fill="none" xmlns="http://www.w3.org/2000/svg">
<circle cx="12" cy="6" r="5" stroke="#222222" stroke-width="2"/>
<path d="M21 19.4C21 19.8591 20.842 20.1971 20.528 20.4932C20.183 20.8186 19.6192 21.1171 18.7914 21.3583C17.1297 21.8424 14.7544 22 12 22C9.24564 22 6.87033 21.8424 5.20864 21.3583C4.38075 21.1171 3.81699 20.8186 3.472 20.4932C3.15804 20.1971 3 19.8591 3 19.4C3 18.4515 3.72691 17.3672 5.40408 16.4615C7.04117 15.5775 9.37137 15 12 15C14.6286 15 16.9588 15.5775 18.5959 16.4615C20.2731 17.3672 21 18.4515 21 19.4Z" stroke="#222222" stroke-width="2"/>
</svg>
