<svg width="24" height="24" viewBox="0 0 24 24" fill="none" xmlns="http://www.w3.org/2000/svg">
<g clip-path="url(#clip0_487_1973)">
<path fill-rule="evenodd" clip-rule="evenodd" d="M9.5 5H11V3.5C11 2.67157 10.3284 2 9.5 2C8.67157 2 8 2.67157 8 3.5C8 4.32843 8.67157 5 9.5 5ZM12 1.05051C11.3647 0.402235 10.4793 0 9.5 0C7.567 0 6 1.567 6 3.5C6 4.0368 6.12085 4.54537 6.33682 5H2C0.895431 5 0 5.89543 0 7V12C0 12.7403 0.402199 13.3866 1 13.7324V14V20C1 22.2091 2.79086 24 5 24H19C21.2091 24 23 22.2091 23 20V14V13.7324C23.5978 13.3866 24 12.7403 24 12V7C24 5.89543 23.1046 5 22 5H17.6632C17.8792 4.54537 18 4.0368 18 3.5C18 1.567 16.433 0 14.5 0C13.5207 0 12.6353 0.402235 12 1.05051ZM14.5 7H13V12H21H22V7H14.5ZM14.5 5C15.3284 5 16 4.32843 16 3.5C16 2.67157 15.3284 2 14.5 2C13.6716 2 13 2.67157 13 3.5V5H14.5ZM11 7H9.5H2L2 12H3H11V7ZM12 14H3V20C3 21.1046 3.89543 22 5 22H19C20.1046 22 21 21.1046 21 20V14H12Z" fill="#222222"/>
</g>
<defs>
<clipPath id="clip0_487_1973">
<rect width="24" height="24" fill="white"/>
</clipPath>
</defs>
</svg>
