<svg width="24" height="24" viewBox="0 0 24 24" fill="none" xmlns="http://www.w3.org/2000/svg">
<path fill-rule="evenodd" clip-rule="evenodd" d="M6.27212 4.92888C5.88594 4.53836 5.25981 4.53836 4.87362 4.92888C4.48744 5.3194 4.48744 5.95257 4.87362 6.34309L10.4679 12.0002L4.87421 17.6568C4.48802 18.0473 4.48802 18.6805 4.87421 19.071C5.2604 19.4615 5.88652 19.4615 6.27271 19.071L11.8664 13.4145L17.4601 19.071C17.8463 19.4615 18.4724 19.4615 18.8586 19.071C19.2448 18.6805 19.2448 18.0473 18.8586 17.6568L13.2649 12.0002L18.8592 6.34309C19.2454 5.95257 19.2454 5.3194 18.8592 4.92888C18.473 4.53836 17.8469 4.53836 17.4607 4.92888L11.8664 10.586L6.27212 4.92888Z" fill="#222222"/>
</svg>
