<svg width="24" height="24" viewBox="0 0 24 24" fill="none" xmlns="http://www.w3.org/2000/svg">
<path fill-rule="evenodd" clip-rule="evenodd" d="M6.34285 4.92888C5.95232 4.53836 5.31916 4.53836 4.92864 4.92888C4.53811 5.3194 4.53811 5.95257 4.92864 6.34309L10.5858 12.0002L4.92923 17.6568C4.5387 18.0473 4.5387 18.6805 4.92923 19.071C5.31975 19.4615 5.95292 19.4615 6.34344 19.071L12 13.4145L17.6566 19.071C18.0471 19.4615 18.6802 19.4615 19.0708 19.071C19.4613 18.6805 19.4613 18.0473 19.0708 17.6568L13.4142 12.0002L19.0714 6.34309C19.4619 5.95257 19.4619 5.3194 19.0714 4.92888C18.6808 4.53836 18.0477 4.53836 17.6572 4.92888L12 10.586L6.34285 4.92888Z" fill="#222222"/>
</svg>
