<svg width="24" height="24" viewBox="0 0 24 24" fill="none" xmlns="http://www.w3.org/2000/svg">
<g clip-path="url(#clip0_487_1962)">
<path fill-rule="evenodd" clip-rule="evenodd" d="M18 2H6C3.79086 2 2 3.79086 2 6H22C22 3.79086 20.2091 2 18 2ZM22 8L2 8V18C2 20.2091 3.79086 22 6 22H18C20.2091 22 22 20.2091 22 18V8ZM0 18V7V6C0 2.68629 2.68629 0 6 0H18C21.3137 0 24 2.68629 24 6V18C24 21.3137 21.3137 24 18 24H6C2.68629 24 0 21.3137 0 18ZM9.70726 13.5356C9.31673 13.145 8.68357 13.145 8.29304 13.5356C7.90252 13.9261 7.90252 14.5593 8.29304 14.9498L11.475 18.1318L16.4248 13.182C16.8153 12.7915 16.8153 12.1583 16.4248 11.7678C16.0342 11.3773 15.4011 11.3773 15.0106 11.7678L11.475 15.3033L9.70726 13.5356Z" fill="#222222"/>
</g>
<defs>
<clipPath id="clip0_487_1962">
<rect width="24" height="24" fill="white"/>
</clipPath>
</defs>
</svg>
