<svg width="96" height="32" viewBox="0 0 96 32" fill="none" xmlns="http://www.w3.org/2000/svg">
<path fill-rule="evenodd" clip-rule="evenodd" d="M61.7361 1V10.5826C62.224 9.96929 62.7718 9.38895 63.3816 8.88655C65.457 7.17686 67.9131 7.2464 69.5511 8.60203C71.1374 9.91487 71.7165 12.2936 70.3768 14.386C69.3253 16.0282 68.11 17.188 67.0491 17.9875C67.555 18.703 68.1445 19.1946 68.8097 19.3759C69.6838 19.6142 71.3269 19.4748 74.0633 17.1745C73.9784 16.7412 73.9339 16.2934 73.9339 15.8353V8.2529H77.2306V15.8353C77.2306 17.8381 78.8542 19.4617 80.857 19.4617C82.8536 19.4617 84.4734 17.848 84.4833 15.8537V15.5053L84.4833 8.2529H87.78V15.8353L87.78 15.8628V22.3994C87.78 26.7333 83.9865 30.0894 79.685 29.5612L79.3924 29.5252C77.0432 29.2367 75.0207 27.73 74.0721 25.5616L77.0924 24.2402C77.5741 25.3414 78.6012 26.1066 79.7942 26.2531L80.0868 26.2891C82.423 26.576 84.4833 24.7532 84.4833 22.3994V21.7338C83.4287 22.3835 82.1866 22.7584 80.857 22.7584C78.706 22.7584 76.7842 21.7774 75.5144 20.2385C72.6843 22.4273 70.1651 23.1623 67.9427 22.5566C65.4962 21.8897 64.112 19.7721 63.3662 18.15L62.7384 16.7843L64.0405 16.0335C64.9685 15.4983 66.4161 14.458 67.6005 12.6083C67.9975 11.9882 67.8168 11.4459 67.4492 11.1418C67.2578 10.9833 67.0043 10.8837 66.7065 10.8906C66.4157 10.8973 65.9897 11.0093 65.4778 11.431C64.4974 12.2387 63.6429 13.4535 62.967 14.7319C62.3589 15.8818 61.9459 16.9862 61.7361 17.6915V22.7582H58.4394V1H61.7361ZM10.8068 13.3241C10.2654 11.9739 9.61922 10.5645 8.83188 8.98979L11.7805 7.51547C12.2244 8.40312 12.6275 9.24545 12.9953 10.0588C14.4032 8.59001 16.2732 7.59329 18.7129 7.59329C22.368 7.59329 26.4614 10.2728 26.4614 15.1757C26.4614 17.5618 25.4572 19.5377 23.7968 20.8108C22.1634 22.063 20.0166 22.5464 17.8321 22.2485L18.2776 18.982C19.7195 19.1786 20.9518 18.8378 21.791 18.1945C22.603 17.5719 23.1647 16.5808 23.1647 15.1757C23.1647 12.4962 20.9779 10.89 18.7129 10.89C17.1459 10.89 16.0117 11.5488 15.0675 12.6852C14.842 12.9566 14.6291 13.2537 14.4276 13.5731C15.2025 15.7337 15.7574 17.8576 16.2126 20.315C16.5442 22.1052 16.7852 24.497 16.4807 26.5155C16.3295 27.518 16.0203 28.5952 15.3747 29.457C14.6709 30.3965 13.6192 30.9998 12.2841 30.9998C10.9357 30.9998 9.83723 30.3744 9.11285 29.3372C8.44567 28.382 8.14275 27.156 8.04127 25.899C7.8369 23.3676 8.39897 20.0409 9.56363 16.4769C9.90403 15.4352 10.3067 14.3559 10.8068 13.3241ZM12.4272 18.3615C11.53 21.3471 11.1857 23.8807 11.3273 25.6337C11.4054 26.6019 11.6193 27.1685 11.8156 27.4496C11.9547 27.6487 12.0663 27.7031 12.2841 27.7031C12.5151 27.7031 12.6144 27.6431 12.7362 27.4805C12.9162 27.2402 13.1073 26.7764 13.2209 26.0237C13.446 24.5315 13.2748 22.5552 12.9711 20.9155C12.8057 20.0226 12.627 19.1788 12.4272 18.3615ZM30.2645 12.715C30.9726 12.0068 32.3209 10.8901 34.3736 10.8901C35.3796 10.8901 36.4414 11.2383 37.2207 11.8446C37.9597 12.4195 38.4018 13.1811 38.4163 14.1157C37.0182 13.1806 35.6167 13.0329 34.2743 13.0329C31.0809 13.0329 27.9907 15.0936 28.2815 18.292C28.4114 19.7203 29.1578 20.8932 30.2907 21.6673C31.3886 22.4174 32.7857 22.7582 34.2743 22.7582C36.5491 22.7582 38.2579 22.0417 39.4554 20.8598C39.6683 21.2887 39.8902 21.7599 40.1217 22.2775L43.131 20.9312C42.5164 19.5573 41.9266 18.3983 41.3373 17.4281C41.6318 16.2931 41.7133 15.1463 41.7133 14.163C41.7133 12.0291 40.6636 10.3461 39.245 9.24255C37.8543 8.16071 36.0705 7.59338 34.3736 7.59338C31.0207 7.59338 28.8736 9.44364 27.9334 10.3839L30.2645 12.715ZM36.8646 17.0659C37.1059 17.2647 37.363 17.5243 37.6397 17.8661C37.6274 17.8867 37.6151 17.9072 37.6025 17.9274C37.0931 18.7501 36.2011 19.4615 34.2743 19.4615C33.2565 19.4615 32.5604 19.2253 32.1505 18.9453C31.7757 18.6891 31.5997 18.3785 31.5647 17.9936C31.5258 17.5657 32.0619 16.3296 34.2743 16.3296C35.4601 16.3296 36.1425 16.4707 36.8646 17.0659ZM46.901 15.1758C46.901 12.8455 48.8465 10.8901 51.3293 10.8901C52.5089 10.8901 53.5724 11.3341 54.3626 12.0536L56.5822 9.61609C55.2015 8.35884 53.352 7.59338 51.3293 7.59338C47.1 7.59338 43.6043 10.9515 43.6043 15.1758C43.6043 19.4001 47.1 22.7582 51.3293 22.7582C53.352 22.7582 55.2015 21.9927 56.5822 20.7355L54.3626 18.2979C53.5724 19.0174 52.5089 19.4615 51.3293 19.4615C48.8465 19.4615 46.901 17.506 46.901 15.1758Z" fill="#222222"/>
</svg>
