<svg width="24" height="24" viewBox="0 0 24 24" fill="none" xmlns="http://www.w3.org/2000/svg">
<rect x="4" y="4" width="16" height="16" rx="8" fill="#BBBBBB"/>
<path fill-rule="evenodd" clip-rule="evenodd" d="M9.52513 8.81783C9.32987 8.62257 9.01329 8.62257 8.81803 8.81783C8.62276 9.0131 8.62276 9.32968 8.81803 9.52494L11.2926 11.9995L8.81735 14.4747C8.62208 14.67 8.62208 14.9866 8.81734 15.1818C9.01261 15.3771 9.32919 15.3771 9.52445 15.1818L11.9997 12.7066L14.4749 15.1818C14.6701 15.3771 14.9867 15.3771 15.182 15.1818C15.3772 14.9865 15.3772 14.6699 15.182 14.4747L12.7068 11.9995L15.1813 9.52499C15.3766 9.32972 15.3766 9.01314 15.1813 8.81788C14.986 8.62262 14.6695 8.62262 14.4742 8.81788L11.9997 11.2924L9.52513 8.81783Z" fill="white"/>
</svg>
