<svg width="203" height="77" viewBox="0 0 203 77" fill="none" xmlns="http://www.w3.org/2000/svg">
<path fill-rule="evenodd" clip-rule="evenodd" d="M136.73 0.657227V25.0436C137.972 23.4816 139.367 22.0036 140.92 20.7242C146.201 16.374 152.45 16.5509 156.618 20.0003C160.655 23.3408 162.128 29.3936 158.719 34.7175C156.044 38.8962 152.951 41.8473 150.252 43.8816C151.539 45.7023 153.039 46.9531 154.732 47.4144C156.956 48.0207 161.136 47.6661 168.098 41.8139C167.882 40.7108 167.769 39.5709 167.769 38.4044V19.111H176.157V38.4044C176.157 43.5005 180.288 47.6317 185.384 47.6317C190.48 47.6317 194.612 43.5005 194.612 38.4044V19.111H203V37.5662H203.001V55.1083C203.001 66.1358 193.349 74.6755 182.404 73.3313L181.659 73.2399C175.682 72.5058 170.536 68.6718 168.122 63.1544L175.807 59.7922C177.033 62.5941 179.646 64.5412 182.682 64.914L183.426 65.0054C189.371 65.7354 194.613 61.0975 194.613 55.1083V53.4121C191.929 55.066 188.768 56.0202 185.384 56.0202C179.912 56.0202 175.022 53.5247 171.791 49.6097C164.59 55.1788 158.18 57.0489 152.526 55.5076C146.3 53.8109 142.778 48.4225 140.881 44.295L139.283 40.8201L142.596 38.9096C144.958 37.5479 148.641 34.9009 151.655 30.1942C152.665 28.6164 152.205 27.2366 151.27 26.4627C150.783 26.0595 150.138 25.8061 149.38 25.8236C148.64 25.8407 147.556 26.1256 146.254 27.1987C143.759 29.2537 141.585 32.345 139.865 35.5978C138.315 38.5292 137.263 41.3443 136.73 43.1385V56.021H128.341V0.657227H136.73ZM7.14181 32.0163C5.76434 28.5807 4.12012 24.9945 2.11672 20.9877L9.61958 17.2363C10.7489 19.4949 11.7747 21.6382 12.7105 23.7077C16.2931 19.9704 21.0512 17.4343 27.2591 17.4343C36.5593 17.4343 46.9751 24.2523 46.9751 36.7277C46.9751 42.799 44.42 47.8269 40.1949 51.0661C36.0387 54.2526 30.5763 55.4824 25.0179 54.7244L26.1513 46.4129C29.8202 46.9132 32.956 46.0459 35.0911 44.409C37.1573 42.8249 38.5867 40.3031 38.5867 36.7277C38.5867 29.9098 33.0223 25.8228 27.2591 25.8228C23.2718 25.8228 20.3858 27.4992 17.9833 30.3906C17.4093 31.0814 16.8679 31.8372 16.355 32.65C18.3268 38.1477 19.7387 43.5518 20.897 49.8048C21.7407 54.3598 22.354 60.4457 21.5792 65.5817C21.1943 68.1328 20.4076 70.8736 18.7649 73.0666C16.974 75.4572 14.2981 76.9923 10.9008 76.9923C7.4698 76.9923 4.67483 75.4008 2.83165 72.7618C1.13401 70.3311 0.363233 67.2117 0.105005 64.0131C-0.415011 57.572 1.01519 49.1073 3.97866 40.0386C4.8448 37.388 5.86931 34.6416 7.14181 32.0163ZM11.2651 44.8341C8.98208 52.4308 8.10613 58.8775 8.46625 63.3381C8.66515 65.8018 9.20941 67.2435 9.7088 67.9585C10.0627 68.4652 10.3467 68.6038 10.9008 68.6038C11.4886 68.6038 11.7413 68.4511 12.0513 68.0373C12.5093 67.4259 12.9956 66.2457 13.2846 64.3304C13.8574 60.5335 13.4217 55.5048 12.6488 51.3326C12.228 49.0606 11.7733 46.9136 11.2651 44.8341ZM56.6517 30.4657C58.4535 28.6638 61.8844 25.8222 67.1074 25.8222C69.6672 25.8222 72.3689 26.7083 74.3519 28.251C76.2322 29.7138 77.3572 31.6517 77.3939 34.0298C73.8366 31.6506 70.2705 31.2747 66.8546 31.2747C58.7292 31.2747 50.8662 36.5181 51.606 44.6565C51.9364 48.2907 53.8357 51.2751 56.7184 53.2448C59.5121 55.1536 63.0669 56.0206 66.8546 56.0206C72.643 56.0206 76.991 54.1975 80.038 51.1902C80.5797 52.2816 81.1442 53.4804 81.7335 54.7975L89.3906 51.3719C87.8266 47.8759 86.3259 44.927 84.8264 42.4583C85.5758 39.5703 85.7833 36.6522 85.7833 34.1501C85.7833 28.7206 83.1122 24.4381 79.5026 21.6301C75.9641 18.8774 71.4251 17.4338 67.1074 17.4338C58.5758 17.4338 53.1125 22.1418 50.7202 24.5342L56.6517 30.4657ZM73.4458 41.5365C74.0596 42.0424 74.7139 42.703 75.4178 43.5728C75.3962 43.6093 75.3743 43.6456 75.3523 43.6817L75.3234 43.7287C74.0271 45.8222 71.7573 47.6322 66.8546 47.6322C64.2649 47.6322 62.4936 47.0312 61.4507 46.3187C60.4969 45.667 60.0491 44.8765 59.96 43.8971C59.8611 42.8083 61.2253 39.6632 66.8546 39.6632C69.8719 39.6632 71.6084 40.022 73.4458 41.5365ZM98.9845 36.7272C98.9845 30.7979 103.935 25.8222 110.252 25.8222C113.254 25.8222 115.96 26.9521 117.971 28.7829L123.618 22.5806C120.105 19.3815 115.399 17.4338 110.252 17.4338C99.4909 17.4338 90.5961 25.9784 90.5961 36.7272C90.5961 47.476 99.4909 56.0206 110.252 56.0206C115.399 56.0206 120.105 54.0729 123.618 50.8739L117.971 44.6715C115.96 46.5023 113.254 47.6322 110.252 47.6322C103.935 47.6322 98.9845 42.6566 98.9845 36.7272Z" fill="white"/>
</svg>
